<svg xmlns="http://www.w3.org/2000/svg" viewBox="0 0 465.27 378"><defs><style>.cls-1{fill:#fff;}.cls-2{fill:#e74c3c;}</style></defs><title>Asset 7</title><g id="Layer_2" data-name="Layer 2"><g id="Layer_2-2" data-name="Layer 2"><g id="body"><path class="cls-1" d="M117.77,314.88a11,11,0,0,1-9.45-16.43l22.62-39.28a141.88,141.88,0,0,0,0-141.14L108.32,78.74A10.94,10.94,0,0,1,123.26,63.8l39.29,22.61a141.88,141.88,0,0,0,141.14,0L343,63.8a10.94,10.94,0,0,1,14.95,14.94L335.3,118a141.88,141.88,0,0,0,0,141.14l22.62,39.28A10.95,10.95,0,0,1,343,313.4l-39.28-22.62a141.88,141.88,0,0,0-141.14,0L123.26,313.4A10.94,10.94,0,0,1,117.77,314.88Zm0-246.36a4.73,4.73,0,0,0-3.3,1.42,4.57,4.57,0,0,0-.76,5.7l22.62,39.28a148.09,148.09,0,0,1,0,147.35l-22.62,39.29a4.72,4.72,0,0,0,6.45,6.44l39.28-22.62a148.14,148.14,0,0,1,147.35,0L346.08,308a4.71,4.71,0,0,0,6.44-6.44l-22.61-39.29a148.09,148.09,0,0,1,0-147.35l22.61-39.28a4.72,4.72,0,0,0-6.44-6.45L306.79,91.81l-1.55-2.7,1.55,2.7a148.14,148.14,0,0,1-147.35,0L120.16,69.19A4.73,4.73,0,0,0,117.77,68.52Z"/></g><g id="rotors"><path class="cls-2" d="M352.39,378a3.11,3.11,0,0,1-.17-6.22,66.78,66.78,0,0,0,30.91-9.59,3.11,3.11,0,0,1,3.24,5.32A73.26,73.26,0,0,1,352.56,378Zm-33.3-6.31a3,3,0,0,1-1.3-.29,73.75,73.75,0,0,1-25.68-19.76,3.11,3.11,0,0,1,4.79-4,67.46,67.46,0,0,0,23.5,18.08,3.11,3.11,0,0,1-1.31,5.94Zm89.52-27.79a3.12,3.12,0,0,1-2.67-4.71,67,67,0,0,0,9.32-31,3.11,3.11,0,0,1,6.22.3,73.28,73.28,0,0,1-10.19,33.89A3.12,3.12,0,0,1,408.61,343.9Zm3.16-65.69a3.11,3.11,0,0,1-2.81-1.78,67.46,67.46,0,0,0-20.5-25.08,3.11,3.11,0,0,1,3.72-5,73.59,73.59,0,0,1,22.41,27.4,3.11,3.11,0,0,1-1.49,4.14A3.14,3.14,0,0,1,411.77,278.21Z"/><path class="cls-2" d="M114.21,376.93h-.15a73.21,73.21,0,0,1-33.89-10.19,3.11,3.11,0,0,1,3.19-5.35,66.77,66.77,0,0,0,31,9.32,3.11,3.11,0,0,1-.14,6.22Zm33.24-6.59a3.11,3.11,0,0,1-1.33-5.93,67.31,67.31,0,0,0,25.07-20.5,3.12,3.12,0,1,1,5,3.73,73.65,73.65,0,0,1-27.4,22.4A3.14,3.14,0,0,1,147.45,370.34Zm-89.75-27a3.11,3.11,0,0,1-2.66-1.5A73.1,73.1,0,0,1,44.55,308a3.11,3.11,0,0,1,6.22-.35,66.85,66.85,0,0,0,9.58,30.92,3.1,3.1,0,0,1-1,4.27A3.05,3.05,0,0,1,57.7,343.32ZM54,277.66a3.08,3.08,0,0,1-1.31-.29,3.11,3.11,0,0,1-1.52-4.13,74,74,0,0,1,19.77-25.68,3.11,3.11,0,1,1,4,4.79,67.7,67.7,0,0,0-18.09,23.5A3.1,3.1,0,0,1,54,277.66Z"/><path class="cls-2" d="M76.77,132.25a3.08,3.08,0,0,1-1.86-.62,73.47,73.47,0,0,1-22.4-27.4,3.11,3.11,0,0,1,5.62-2.66,67.39,67.39,0,0,0,20.51,25.08,3.11,3.11,0,0,1-1.87,5.6Zm-28-59.48h-.15a3.12,3.12,0,0,1-3-3.26,73.17,73.17,0,0,1,10.2-33.89,3.11,3.11,0,1,1,5.34,3.19,67,67,0,0,0-9.32,31A3.1,3.1,0,0,1,48.73,72.77ZM172.59,31.46a3.1,3.1,0,0,1-2.4-1.13A67.54,67.54,0,0,0,146.7,12.25a3.11,3.11,0,1,1,2.61-5.65A73.72,73.72,0,0,1,175,26.36a3.11,3.11,0,0,1-2.39,5.1ZM82.35,16.26a3.11,3.11,0,0,1-1.62-5.77A73.18,73.18,0,0,1,114.53,0a3.11,3.11,0,1,1,.34,6.22A66.86,66.86,0,0,0,84,15.81,3.16,3.16,0,0,1,82.35,16.26Z"/><path class="cls-2" d="M394.2,131.15a3.11,3.11,0,0,1-2-5.5,67.58,67.58,0,0,0,18.09-23.5,3.11,3.11,0,0,1,5.65,2.61,73.75,73.75,0,0,1-19.76,25.68A3.13,3.13,0,0,1,394.2,131.15Zm25.23-57.88a3.1,3.1,0,0,1-3.1-2.94,67,67,0,0,0-9.59-30.92,3.11,3.11,0,0,1,5.32-3.23A73.13,73.13,0,0,1,422.54,70a3.1,3.1,0,0,1-2.93,3.28Zm-126-37.93a3.11,3.11,0,0,1-2.49-5A73.63,73.63,0,0,1,318.31,8,3.11,3.11,0,1,1,321,13.59a67.31,67.31,0,0,0-25.07,20.5A3.1,3.1,0,0,1,293.41,35.34Zm91.92-18.29a3.18,3.18,0,0,1-1.59-.44,66.84,66.84,0,0,0-31-9.32,3.12,3.12,0,0,1-3-3.26,3.08,3.08,0,0,1,3.25-3,73.09,73.09,0,0,1,33.89,10.19,3.11,3.11,0,0,1-1.59,5.79Z"/></g><g id="wings_bot" data-name="wings bot"><path class="cls-1" d="M136.5,202.87v.07a3.07,3.07,0,0,1-3.07,2.82H77.77a3.07,3.07,0,0,1-3.08-3.08v-.06a3.08,3.08,0,0,1,3.08-3.08h55.66A3.09,3.09,0,0,1,136.5,202.87Z"/><path class="cls-1" d="M390.57,202.62v.06a3.07,3.07,0,0,1-3.08,3.08H332.8a3.07,3.07,0,0,1-3.07-2.82v-.07a3.09,3.09,0,0,1,3.07-3.33h54.69A3.07,3.07,0,0,1,390.57,202.62Z"/></g><g id="wings_mid" data-name="wings mid"><rect class="cls-1" x="37.35" y="185.54" width="99.71" height="6.22" rx="3.08" ry="3.08"/><rect class="cls-1" x="329.18" y="185.54" width="98.74" height="6.22" rx="3.08" ry="3.08"/></g><g id="wings_top" data-name="wings top"><path class="cls-1" d="M133.44,177.76H3.08A3.08,3.08,0,0,1,0,174.67v-.06a3.08,3.08,0,0,1,3.08-3.08H133.44a3.07,3.07,0,0,1,3.07,2.82v.06A3.1,3.1,0,0,1,133.44,177.76Z"/><path class="cls-1" d="M465.27,174.61v.06a3.08,3.08,0,0,1-3.08,3.09H332.79a3.09,3.09,0,0,1-3.07-3.35v-.06a3.07,3.07,0,0,1,3.07-2.82h129.4A3.08,3.08,0,0,1,465.27,174.61Z"/></g></g></g></svg>